<svg xmlns="http://www.w3.org/2000/svg" viewBox="0 0 260 56" width="260" height="56" role="img"
    aria-label="Grab UI logo">
    <defs>
        <linearGradient id="g" x1="0" y1="0" x2="1" y2="1">
            <stop offset="0%" stop-color="#2563eb" />
            <stop offset="100%" stop-color="#22d3ee" />
        </linearGradient>
    </defs>
    <!-- Icon -->
    <rect x="4" y="4" width="48" height="48" rx="12" fill="url(#g)" />
    <path
        d="M18 32c0-6.5 4.4-11 11-11 2.8 0 5.3.9 7.3 2.4l-2.3 2.6A8.9 8.9 0 0 0 29 23c-4.9 0-7.8 3.6-7.8 9s2.9 9 7.8 9c2.3 0 4.2-.7 5.8-2V31h-5.5v-3.2h8.9v9.4A13.3 13.3 0 0 1 29 41c-6.6 0-11-4.5-11-11Z"
        fill="#fff" />

    <!-- Wordmark -->
    <g fill="#0f172a">
        <text x="64" y="36"
            font-family="Geist, Geist Fallback, system-ui, sans-serif"
            font-size="24" font-weight="700" letter-spacing="0.5">
            Grab UI
        </text>
    </g>
</svg>