<svg xmlns="http://www.w3.org/2000/svg" viewBox="0 0 48 48" width="48" height="48" role="img"
    aria-label="Grab UI icon">
    <defs>
        <linearGradient id="g" x1="0" y1="0" x2="1" y2="1">
            <stop offset="0%" stop-color="#2563eb" />
            <stop offset="100%" stop-color="#22d3ee" />
        </linearGradient>
    </defs>
    <rect x="2" y="2" width="44" height="44" rx="10" fill="url(#g)" />
    <!-- Monogram derived from the logo icon -->
    <path
        d="M14 26c0-6 4-10 10-10 2.5 0 4.8.8 6.6 2.2l-2.1 2.5A8 8 0 0 0 24 18c-4.4 0-7 3.2-7 8s2.6 8 7 8c2 0 3.8-.6 5.2-1.9V29h-5v-3h8v8.4A12 12 0 0 1 24 36c-6 0-10-4-10-10Z"
        fill="#fff" />
</svg>